<svg width="46.626mm" height="12.965mm" version="1.1" viewBox="0 0 46.626 12.965" xml:space="preserve" xmlns="http://www.w3.org/2000/svg">
<g transform="matrix(.85851 0 0 .85851 -56.357 -42.14)">
<g transform="matrix(.26458 0 0 .26458 69.488 50.153)">
<path d="m14.462 28.768-.0035.0072h-12.787c-.4776 0-.8756-.1467-1.194-.4401s-.4776-.6619-.4776-1.1055c0-.4723.20262-.9589.60786-1.4598l20.342-24.837c.3763-.48659.7924-.77997 1.2482-.88015.4559-.10018.8648-.057246 1.2266.1288.3618.18605.6151.49016.7598.91235.1448.42218.1086.92666-.1085 1.5134l-6.643 17.625h1.1057l.0035-.0072h12.787c.4776 0 .8756.1467 1.194.4401s.4776.6619.4776 1.1055c0 .4723-.2026.9589-.6079 1.4598l-20.342 24.837c-.3763.4865-.7924.7799-1.2482.8801-.4559.1002-.86479.0573-1.2266-.1288-.36182-.186-.61509-.4902-.75982-.9123-.14473-.4222-.10855-.9267.10854-1.5135l6.643-17.624z" clip-rule="evenodd" fill="#fff" fill-rule="evenodd" style="fill:#000"/>
</g>
<g transform="matrix(.26458 0 0 .26458 81.643 50.938)">
<path d="m.92 42h19.488c7.672 0 12.488-4.144 12.488-11.312 0-5.152-2.072-7.952-5.264-9.464v-.224c1.96-1.4 3.808-3.752 3.808-8.008 0-6.44-4.76-10.192-11.76-10.192h-18.76zm8.736-24.08v-7.392h8.736c2.968 0 4.144 1.568 4.144 3.696s-1.176 3.696-4.144 3.696zm0 16.296v-8.68h9.296c3.808 0 4.984 2.352 4.984 4.312 0 2.352-1.232 4.368-4.984 4.368zm40.657 8.288c9.52 0 14.616-6.384 14.616-15.12 0-8.792-5.208-15.176-14.616-15.176s-14.616 6.384-14.616 15.176 5.096 15.12 14.616 15.12zm0-7.56c-3.528 0-5.824-2.24-5.824-7.56 0-5.264 2.24-7.616 5.824-7.616s5.824 2.296 5.824 7.616-2.24 7.56-5.824 7.56zm18.831 7.056h8.624v-41.44h-8.624zm26.552.504c2.744 0 5.0404-.504 5.9364-.84v-7.168h-.56c-.896.336-1.8484.504-2.8004.504-2.576 0-3.752-1.176-3.752-3.92v-11.032h7.0004v-7.336h-7.0004v-7.672h-.56l-7.672 1.568v6.104h-5.152v7.336h4.76v13.104c0 5.32 3.024 9.352 9.8 9.352zm10.397-.504h24.192v-7.336h-13.552v-.224l13.44-14.448v-7.28h-24.024v7.336h13.44v.224l-13.496 14.504z" fill="#fff" style="fill:#000"/>
</g>
</g>
</svg>
