<svg xmlns="http://www.w3.org/2000/svg" id="Layer_1" data-name="Layer 1" viewBox="0 0 457 80.82"><defs><style>.cls-1{fill:#1a1a1a}</style></defs><path d="M379.92 105.59c5.53.9 7.24 5.74 6.33 11.17l-2.11 11.57c-1.51 8.86-8.25 13.89-19.92 13.89H346l12.37-70.43h18.43c9.66 0 16.09 5 14.49 13.88l-1.51 8.85c-1.01 6.04-4.13 10.37-9.86 11.07zm-9.76 5.14h-7l-3.72 21.42h6.94c3.32 0 5.74-1.7 6.34-5.43l1.91-10.56c.66-3.73-1.15-5.43-4.47-5.43zm-5.24-9.87h6.54c3.33 0 5.74-1.71 6.44-5.43l1.41-8.15c.71-3.72-1.1-5.43-4.42-5.43h-6.54zM420.09 142.22H390.4l12.38-70.43h11.67l-10.56 60h18zM426.75 142.22l12.37-70.43h11.67l-12.37 70.43zM490.65 82.05h-11.78l-10.56 60.17h-11.67l10.56-60.17h-11.77l1.81-10.26h35.22zM516.83 142.22h-33.71l1.41-8.05 29.88-52.73h-19.32l1.62-9.65h31.79l-1.41 8-29.78 52.72h21.23zM333.53 119l-17-24.25 4.94-28.13L280.86 95l17 24.25-5 28.13z" class="cls-1" transform="translate(-71.5 -66.59)"/><path fill="#ffe000" d="M234.77 50.84L220.42 30.4l18.42-12.91-2.19 12.49 14.32 20.47-18.43 12.88 2.23-12.49z"/><path d="M117.18 86.68L115 99.26c-1.2 6.94-4.52 11.16-9.86 13.28l4.73 29.68H98.26l-3.92-28.08H88.1l-4.93 28.08H71.5l12.37-70.43h18.21c9.66 0 17.01 4.21 15.1 14.89zm-17.31-4.63h-6.13l-3.83 22h6.14c3.82 0 6.64-1.41 7.55-6.43l1.6-9.16c.91-5-1.5-6.41-5.33-6.41zM142.15 142.22l.31-15.7h-13l-5.23 15.7h-11.56l25.46-70.43h14.69l.9 70.43zm.41-25.36l.6-31.29-10.46 31.29zM188.36 96.94l1.81-9.86c.71-4.43-1.51-6-4.93-6s-6.24 1.61-6.94 6l-.91 4.83c-.6 3.62.1 5.63 3.12 7.55l7.45 4.62c6.24 3.93 9.66 7 8.35 14.09l-1.81 10.16c-1.92 10.86-8.25 14.69-19.92 14.69h-.21c-9.65 0-16.8-3.72-14.89-14.69l2.22-12.27h11.47l-1.91 10.66c-.71 4.33 1.4 6.24 4.92 6.24s6.44-1.91 7.15-6.24l1-5.53c.7-3.82-.21-5.84-3.32-7.75l-7.35-4.63c-5.43-3.42-9.36-7.85-8.25-14.09l1.59-9.25C168.94 75 176.28 71 187 71h.2c8.65 0 16.6 4 14.69 14.49l-2 11.47zM246.24 86.68l-2.32 13.38C242 110.73 235.27 115 223.6 115h-6.54l-4.83 27.27h-11.67l12.37-70.43h18.21c9.66-.05 17.01 4.16 15.1 14.84zm-12 1.81c.91-5-1.51-6.44-5.33-6.44h-6.14l-3.92 22.64H225c3.82 0 6.64-1.41 7.54-6.44zM244.35 142.22l12.38-70.43h11.67L256 142.22z" class="cls-1" transform="translate(-71.5 -66.59)"/></svg>
