<svg width="3032" height="902" viewBox="0 0 3032 902" fill="none" xmlns="http://www.w3.org/2000/svg">
<path d="M158.566 493.857L1 901L450.49 355.202H264.831L501.791 1H187.881L36.4218 493.857H158.566Z" fill="#FF1FE1" stroke="black"/>
<path d="M616.041 764.863V134.611H741.647V645.115H1023.41V764.863H616.041Z" fill="#1E1E1E"/>
<path d="M1079.99 764.863V134.611H1198.81L1478.31 543.014V134.611H1600.52V764.863H1478.31L1198.81 360.241V764.863H1079.99Z" fill="#1E1E1E"/>
<path d="M616.041 764.863V134.611H741.647V645.115H1023.41V764.863H616.041Z" stroke="black"/>
<path d="M1079.99 764.863V134.611H1198.81L1478.31 543.014V134.611H1600.52V764.863H1478.31L1198.81 360.241V764.863H1079.99Z" stroke="black"/>
<path d="M1693.87 768.522V148.458H1764.1V377.349H1770.05C1775.21 369.275 1782.35 358.981 1791.47 346.467C1800.8 333.751 1814.09 322.448 1831.35 312.557C1848.81 302.465 1872.41 297.419 1902.17 297.419C1940.66 297.419 1974.58 307.208 2003.94 326.787C2033.3 346.366 2056.22 374.119 2072.68 410.048C2089.15 445.976 2097.38 488.363 2097.38 537.209C2097.38 586.459 2089.15 629.149 2072.68 665.279C2056.22 701.207 2033.4 729.061 2004.24 748.842C1975.08 768.421 1941.45 778.21 1903.36 778.21C1874 778.21 1850.49 773.265 1832.84 763.375C1815.18 753.282 1801.59 741.878 1792.07 729.162C1782.55 716.244 1775.21 705.547 1770.05 697.069H1761.72V768.522H1693.87ZM1762.91 535.998C1762.91 571.119 1767.96 602.102 1778.08 628.947C1788.2 655.59 1802.98 676.481 1822.42 691.619C1841.86 706.556 1865.67 714.024 1893.84 714.024C1923.2 714.024 1947.7 706.152 1967.34 690.408C1987.18 674.463 2002.06 653.067 2011.98 626.222C2022.1 599.175 2027.15 569.1 2027.15 535.998C2027.15 503.299 2022.2 473.83 2012.28 447.59C2002.55 421.149 1987.78 400.258 1967.94 384.918C1948.3 369.376 1923.6 361.605 1893.84 361.605C1865.27 361.605 1841.27 368.972 1821.83 383.707C1802.38 398.24 1787.7 418.626 1777.78 444.866C1767.87 470.903 1762.91 501.281 1762.91 535.998Z" fill="black"/>
<path d="M2204.81 768.522V303.474H2275.04V768.522H2204.81ZM2240.52 225.966C2226.83 225.966 2215.03 221.223 2205.11 211.736C2195.39 202.25 2190.52 190.846 2190.52 177.524C2190.52 164.202 2195.39 152.798 2205.11 143.311C2215.03 133.825 2226.83 129.081 2240.52 129.081C2254.21 129.081 2265.91 133.825 2275.63 143.311C2285.55 152.798 2290.51 164.202 2290.51 177.524C2290.51 190.846 2285.55 202.25 2275.63 211.736C2265.91 221.223 2254.21 225.966 2240.52 225.966Z" fill="black"/>
<path d="M2602.45 303.474V364.027H2365.57V303.474H2602.45ZM2434.61 192.057H2504.84V635.305C2504.84 655.489 2507.72 670.628 2513.47 680.72C2519.42 690.61 2526.96 697.271 2536.09 700.702C2545.41 703.932 2555.23 705.546 2565.55 705.546C2573.28 705.546 2579.63 705.143 2584.59 704.335C2589.55 703.326 2593.52 702.519 2596.5 701.913L2610.78 766.1C2606.02 767.916 2599.37 769.733 2590.84 771.549C2582.31 773.568 2571.5 774.577 2558.41 774.577C2538.57 774.577 2519.12 770.237 2500.08 761.558C2481.23 752.879 2465.56 739.658 2453.06 721.896C2440.76 704.134 2434.61 681.729 2434.61 654.682V192.057Z" fill="black"/>
<path d="M3023.67 407.625L2960.58 425.791C2956.61 415.094 2950.76 404.699 2943.02 394.607C2935.49 384.313 2925.17 375.835 2912.08 369.174C2898.98 362.513 2882.22 359.183 2861.79 359.183C2833.81 359.183 2810.5 365.743 2791.85 378.863C2773.41 391.781 2764.18 408.231 2764.18 428.213C2764.18 445.976 2770.53 460.004 2783.23 470.298C2795.92 480.592 2815.76 489.17 2842.74 496.033L2910.59 512.988C2951.46 523.08 2981.91 538.521 3001.94 559.311C3021.98 579.899 3032 606.441 3032 638.938C3032 665.581 3024.46 689.399 3009.38 710.391C2994.51 731.383 2973.67 747.934 2946.89 760.044C2920.11 772.155 2888.96 778.21 2853.45 778.21C2806.83 778.21 2768.25 767.916 2737.7 747.328C2707.14 726.74 2687.8 696.665 2679.67 657.104L2746.33 640.149C2752.67 665.178 2764.68 683.949 2782.33 696.464C2800.19 708.978 2823.5 715.235 2852.26 715.235C2885 715.235 2910.99 708.17 2930.23 694.041C2949.67 679.711 2959.39 662.554 2959.39 642.571C2959.39 626.424 2953.84 612.9 2942.73 602.001C2931.62 590.899 2914.56 582.624 2891.54 577.174L2815.36 559.008C2773.5 548.916 2742.75 533.273 2723.11 512.079C2703.67 490.684 2693.95 463.94 2693.95 431.847C2693.95 405.607 2701.19 382.395 2715.67 362.211C2730.36 342.026 2750.29 326.182 2775.49 314.676C2800.88 303.171 2829.65 297.419 2861.79 297.419C2907.02 297.419 2942.53 307.511 2968.32 327.695C2994.31 347.88 3012.76 374.523 3023.67 407.625Z" fill="black"/>
</svg>
