<svg xmlns="http://www.w3.org/2000/svg" viewBox="0 0 101.041 30.0001"><defs><path id="a" d="M33.2619 148.1667h154.2143v68.7917H33.2619z"/></defs><g fill="#1f2234" aria-label="LNbits" font-family="sans-serif" font-size=".3095" font-weight="400" letter-spacing=".0031" style="line-height:1.25;white-space:pre;shape-inside:url(#a)" transform="matrix(72.4607 0 0 72.4607 -2399.2814 -10741.3589)"><g transform="matrix(.00244 0 0 .00244 33.0708 148.1594)"><circle cx="101.2976" cy="116.4167" r="84.6667" fill="#673ab7" fill-rule="evenodd"/><path fill="#eee" d="M79.1105 71.9667v49.0613h13.3803v40.141l31.2208-53.5213h-17.8404l17.8404-35.681z"/></g><g fill="#eee" font-family="roboto"><path d="M33.6755 148.518h.0962v.0364h-.1416v-.22h.0454zM33.9796 148.5544h-.0453l-.0883-.1448v.1448h-.0453v-.22h.0453l.0884.145v-.145h.0452z" font-weight="700" style="-inkscape-font-specification:'roboto Bold'"/><path d="M34.1625 148.4744q0 .0375-.0172.0603-.0172.0227-.0462.0227-.031 0-.048-.0219l-.0014.019h-.0256v-.2322h.028v.0866q.0168-.021.0466-.021.0298 0 .0467.0225.017.0225.017.0617zm-.028-.003q0-.0286-.011-.044-.011-.0157-.0317-.0157-.0277 0-.0398.0257v.0707q.0129.0257.04.0257.0202 0 .0314-.0156.0112-.0156.0112-.0469zM34.231 148.5544h-.028v-.1635h.028zm-.0302-.2069q0-.007.0041-.0115.0042-.005.0124-.005.0082 0 .0124.005.0042.005.0042.0115 0 .007-.0042.0113-.0042.005-.0124.005-.0082 0-.0124-.005-.004-.005-.004-.0113zM34.3167 148.3513v.0396h.0305v.0216h-.0305v.1014q0 .01.004.0148.0042.005.014.005.0048 0 .0133-.002v.0227q-.011.003-.0215.003-.0187 0-.0283-.0113-.0095-.0113-.0095-.0322v-.1014h-.0297v-.0216h.0297v-.0396zM34.478 148.511q0-.0113-.0086-.0175-.0085-.006-.0298-.0109-.0211-.005-.0337-.0109-.0124-.006-.0184-.015t-.006-.0209q0-.02.017-.034.017-.0139.0435-.0139.0278 0 .045.0144.0174.0144.0174.0367h-.028q0-.0115-.0099-.0198-.0097-.008-.0245-.008-.0152 0-.0238.007-.0086.007-.0086.0174 0 .0101.008.0153.008.005.0288.01.021.005.034.0112.013.007.0192.0157.0063.009.0063.0222 0 .022-.0175.0352-.0175.0131-.0455.0131-.0197 0-.0348-.007-.015-.007-.0237-.0193-.0085-.0125-.0085-.027h.028q.0007.014.0111.0223.0106.008.0279.008.0158 0 .0253-.006.0097-.006.0097-.0172z" style="-inkscape-font-specification:roboto"/></g></g></svg>
