<svg width="32" height="32" viewBox="0 0 32 32" fill="none" xmlns="http://www.w3.org/2000/svg">
<path d="M4.04502 6.46189C3.1858 7.47829 2.51519 8.66234 2.10654 9.96165C4.43272 9.43773 7.52382 9.31199 9.27369 9.17577C9.81856 6.93342 11.3694 5.22546 13.968 5.34072C15.0891 5.39311 16.0741 6.11611 16.7552 7.22681C17.2582 6.69242 17.9288 6.33615 18.8194 6.21042C18.8823 6.21042 19.0185 6.19994 19.1233 6.19994C17.2791 4.1881 14.6491 2.90975 11.7047 2.90975C11.1703 2.90975 10.6464 2.96214 10.1224 3.04597C10.0177 3.04597 9.88143 3.06693 9.7033 3.10884C9.69282 3.10884 9.67187 3.10884 9.66139 3.10884C9.65091 3.10884 9.64043 3.10884 9.61948 3.10884C7.58669 3.60132 6.05685 3.20314 5.18716 2.0191C5.09285 1.89336 4.72611 1.33801 4.61085 0.363525C3.97167 1.02366 3.55254 2.1134 3.9088 3.27649C4.19172 4.19858 4.72611 4.69106 5.30242 4.97398C4.42224 5.02637 3.68876 4.85871 2.95528 4.30337C2.52567 3.97854 2.25323 3.62228 1.80267 2.68971C1.38353 3.34984 1.42545 4.08332 1.50927 4.46054C1.61406 4.9635 1.87601 5.52933 2.21132 5.85415C2.72476 6.35711 3.45824 6.47237 4.0555 6.46189H4.04502Z" fill="white"/>
<path d="M13.9782 15.1276C15.2803 15.1276 16.3358 13.3215 16.3358 11.0935C16.3358 8.86547 15.2803 7.05933 13.9782 7.05933C12.6761 7.05933 11.6206 8.86547 11.6206 11.0935C11.6206 13.3215 12.6761 15.1276 13.9782 15.1276Z" fill="white"/>
<path d="M19.165 14.1532C20.1835 14.1532 21.0092 12.7177 21.0092 10.9468C21.0092 9.17601 20.1835 7.74048 19.165 7.74048C18.1465 7.74048 17.3208 9.17601 17.3208 10.9468C17.3208 12.7177 18.1465 14.1532 19.165 14.1532Z" fill="white"/>
<path fill-rule="evenodd" clip-rule="evenodd" d="M10.0339 31.9777C10.0445 31.5085 10.2194 30.0309 11.7152 27.0729C12.3753 25.7841 13.8737 24.0028 14.9949 23.0387C15.5922 22.5148 16.1894 22.0747 16.7762 21.6661C17.0801 21.488 17.363 21.2993 17.6354 21.1003C22.5434 18.0911 26.876 18.7195 30.4704 19.2408L30.5761 19.2561C30.5761 19.2561 31.4354 16.6994 27.8937 15.3791C25.9657 14.6666 23.6919 14.0903 21.7953 13.6921C21.5229 14.1846 21.1771 14.6037 20.7684 14.9181C20.7628 14.9223 20.7571 14.9266 20.7512 14.931C20.4473 15.1594 19.7267 15.7009 18.4213 15.5468C17.7507 15.4629 17.2373 15.1905 16.8286 14.7923C16.137 15.9345 15.1416 16.6784 13.989 16.7832C10.7931 17.0556 9.17945 14.3732 9.07466 11.4078C6.67513 11.6384 3.4059 13.1158 1.6665 13.975L1.6755 29.386C3.89486 30.2461 7.22426 31.3076 10.0339 31.9777Z" fill="white"/>
</svg>
